# xmcd CD database file generated by Grip 2.94
# 
# Track frame offsets:
#       150
#       20232
#       39840
#       52620
#       67222
#       82567
#       102322
#       125895
#       140370
#       156892
#       173297
#       194775
#       217140
#       231657
#       246895
#       261712
#       278600
#       296825
# 
# Disc length: 4243 seconds
# 
# Revision: 3
# Processed by: cddbd v1.4b41PL1 Copyright (c) Steve Scherf et al.
# Submitted via: Grip 2.94
# 
DISCID=15109112
DTITLE=Curtis Mayfield - The Masters Disc 2
DYEAR=1900
DGENRE=
TTITLE0=In Your Arms Again (Shake it)
TTITLE1=Only You Babe
TTITLE2=For once in my life
TTITLE3=Duke of Earl
TTITLE4=Power to the People
TTITLE5=Ain't No Love Lost
TTITLE6=Show Me Love
TTITLE7=Just Want To Be With You
TTITLE8=Do It All Night
TTITLE9=You Are, You Are
TTITLE10=Got to be Real
TTITLE11=He's a Fly Guy
TTITLE12=Need Someone to Love
TTITLE13=Another Fool in Love
TTITLE14=Wild and Free
TTITLE15=People Get Ready (Live)
TTITLE16=Sparkle
TTITLE17=We're a Winner Rap
EXTD=
EXTT0=
EXTT1=
EXTT2=
EXTT3=
EXTT4=
EXTT5=
EXTT6=
EXTT7=
EXTT8=
EXTT9=
EXTT10=
EXTT11=
EXTT12=
EXTT13=
EXTT14=
EXTT15=
EXTT16=
EXTT17=
PLAYORDER=
